<svg xmlns="http://www.w3.org/2000/svg" width="66.123" height="58.342" viewBox="0 0 66.123 58.342"><defs><style>.a{fill:#fff;}</style></defs><g transform="translate(-389.477 -252.559)"><path class="a" d="M393.5,310.9a4.552,4.552,0,0,1-2-.5,4.071,4.071,0,0,1-1.5-5.5l29.1-50.3a5.356,5.356,0,0,1,1.5-1.5,3.938,3.938,0,0,1,3-.4,3.8,3.8,0,0,1,2.4,1.9l29.1,50.3a3.513,3.513,0,0,1,.5,2,3.631,3.631,0,0,1-1.2,2.8,3.949,3.949,0,0,1-2.8,1.2Zm29-55.4a.9.9,0,0,0-.5.1.781.781,0,0,0-.4.4l-29.1,50.3a1.012,1.012,0,0,0,.4,1.4.9.9,0,0,0,.5.1h58.1a1.025,1.025,0,0,0,1-1,.749.749,0,0,0-.1-.5l-29-50.3a1.05,1.05,0,0,0-.9-.5Z"/><g transform="translate(650.67 376.37)"><path class="a" d="M-228.1-75.1a3.1,3.1,0,0,1-2.4-1,3.471,3.471,0,0,1-1-2.5,3.471,3.471,0,0,1,1-2.5,3.1,3.1,0,0,1,2.4-1,3.1,3.1,0,0,1,2.4,1,3.376,3.376,0,0,1,.9,2.5,3.841,3.841,0,0,1-.9,2.5A3.492,3.492,0,0,1-228.1-75.1Zm-1.8-10.2-.7-15.3-.1-5.1h5.2l-.2,5.1-.7,15.3Z"/></g></g></svg>