<svg xmlns="http://www.w3.org/2000/svg" width="33.999" height="29.998" viewBox="0 0 33.999 29.998"><defs><style>.a{fill:#202e45;}</style></defs><g transform="translate(-389.477 -252.559)"><path class="a" d="M391.546,282.557a2.341,2.341,0,0,1-1.028-.257,2.093,2.093,0,0,1-.771-2.828l14.963-25.864a2.754,2.754,0,0,1,.771-.771,2.025,2.025,0,0,1,1.543-.206,1.952,1.952,0,0,1,1.234.977l14.963,25.864a1.806,1.806,0,0,1,.257,1.028,1.867,1.867,0,0,1-.617,1.44,2.03,2.03,0,0,1-1.44.617Zm14.911-28.486a.463.463,0,0,0-.257.051.4.4,0,0,0-.206.206l-14.963,25.864a.52.52,0,0,0,.206.72.464.464,0,0,0,.257.051h29.874a.527.527,0,0,0,.514-.514.385.385,0,0,0-.051-.257L406.92,254.328A.54.54,0,0,0,406.457,254.071Z" transform="translate(0 0)"/><g transform="translate(404.745 261.871)"><path class="a" d="M-229.752-89.966a1.6,1.6,0,0,1-1.234-.514,1.785,1.785,0,0,1-.514-1.285,1.785,1.785,0,0,1,.514-1.285,1.6,1.6,0,0,1,1.234-.514,1.6,1.6,0,0,1,1.234.514,1.736,1.736,0,0,1,.463,1.285,1.975,1.975,0,0,1-.463,1.285A1.8,1.8,0,0,1-229.752-89.966Zm-.926-5.245-.36-7.867-.051-2.622h2.674l-.1,2.622-.36,7.867Z" transform="translate(231.5 105.7)"/></g></g></svg>